<svg width="40" height="40" viewBox="0 0 40 40" fill="none" xmlns="http://www.w3.org/2000/svg">
<path opacity="0.3" fill-rule="evenodd" clip-rule="evenodd" d="M5 33.5C5 34.3284 5.67157 35 6.5 35H36.8333C37.6618 35 38.3333 34.3284 38.3333 33.5V13.1667C38.3333 12.3382 37.6618 11.6667 36.8333 11.6667H18.3333L13.7727 7.106C13.4914 6.82469 13.1098 6.66666 12.712 6.66666H6.5C5.67157 6.66666 5 7.33823 5 8.16666V33.5Z" fill="#3734A9"/>
<path fill-rule="evenodd" clip-rule="evenodd" d="M1.66669 30.1667C1.66669 30.9951 2.33826 31.6667 3.16669 31.6667H33.5C34.3284 31.6667 35 30.9951 35 30.1667V9.83334C35 9.00492 34.3284 8.33334 33.5 8.33334H15L10.4394 3.77268C10.1581 3.49138 9.77653 3.33334 9.3787 3.33334H3.16669C2.33826 3.33334 1.66669 4.00492 1.66669 4.83334V30.1667Z" fill="#3734A9"/>
</svg>
