<svg width="147" height="30" viewBox="0 0 147 30" fill="none" xmlns="http://www.w3.org/2000/svg">
<path d="M50.292 21V7.7H53.18L57.417 16.136L61.597 7.7H64.485V21H62.053V11.823L58.348 19.1H56.429L52.724 11.823V21H50.292ZM70.5044 21V16.269L66.0394 7.7H68.7944L71.7394 13.837L74.6654 7.7H77.3824L72.9364 16.269V21H70.5044ZM89.4908 21.228C88.1481 21.228 86.9954 20.943 86.0328 20.373C85.0701 19.7903 84.3291 18.986 83.8098 17.96C83.2904 16.9213 83.0308 15.7243 83.0308 14.369C83.0308 13.0137 83.2904 11.8167 83.8098 10.778C84.3291 9.73933 85.0701 8.92867 86.0328 8.346C86.9954 7.76333 88.1481 7.472 89.4908 7.472C91.0868 7.472 92.3914 7.871 93.4048 8.669C94.4308 9.45433 95.0704 10.5627 95.3238 11.994H92.6448C92.4801 11.272 92.1254 10.7083 91.5808 10.303C91.0488 9.885 90.3394 9.676 89.4528 9.676C88.2241 9.676 87.2614 10.094 86.5648 10.93C85.8681 11.766 85.5198 12.9123 85.5198 14.369C85.5198 15.8257 85.8681 16.972 86.5648 17.808C87.2614 18.6313 88.2241 19.043 89.4528 19.043C90.3394 19.043 91.0488 18.853 91.5808 18.473C92.1254 18.0803 92.4801 17.542 92.6448 16.858H95.3238C95.0704 18.226 94.4308 19.2963 93.4048 20.069C92.3914 20.8417 91.0868 21.228 89.4908 21.228ZM97.4766 21V7.7H99.9086V19.1H105.799V21H97.4766ZM112.967 21.228C111.637 21.228 110.472 20.9367 109.471 20.354C108.483 19.7713 107.704 18.967 107.134 17.941C106.577 16.9023 106.298 15.7053 106.298 14.35C106.298 12.9947 106.577 11.804 107.134 10.778C107.704 9.73933 108.483 8.92867 109.471 8.346C110.472 7.76333 111.637 7.472 112.967 7.472C114.285 7.472 115.444 7.76333 116.444 8.346C117.445 8.92867 118.224 9.73933 118.781 10.778C119.339 11.804 119.617 12.9947 119.617 14.35C119.617 15.7053 119.339 16.9023 118.781 17.941C118.224 18.967 117.445 19.7713 116.444 20.354C115.444 20.9367 114.285 21.228 112.967 21.228ZM112.967 19.043C114.234 19.043 115.241 18.625 115.988 17.789C116.748 16.953 117.128 15.8067 117.128 14.35C117.128 12.8933 116.748 11.747 115.988 10.911C115.241 10.075 114.234 9.657 112.967 9.657C111.701 9.657 110.687 10.075 109.927 10.911C109.167 11.747 108.787 12.8933 108.787 14.35C108.787 15.8067 109.167 16.953 109.927 17.789C110.687 18.625 111.701 19.043 112.967 19.043ZM126.895 21.228C125.919 21.228 125.039 21.038 124.254 20.658C123.468 20.2653 122.841 19.6763 122.373 18.891C121.917 18.1057 121.689 17.1113 121.689 15.908V7.7H124.121V15.927C124.121 16.9657 124.368 17.7383 124.862 18.245C125.368 18.7517 126.065 19.005 126.952 19.005C127.826 19.005 128.516 18.7517 129.023 18.245C129.529 17.7383 129.783 16.9657 129.783 15.927V7.7H132.215V15.908C132.215 17.1113 131.974 18.1057 131.493 18.891C131.011 19.6763 130.365 20.2653 129.555 20.658C128.757 21.038 127.87 21.228 126.895 21.228ZM134.697 21V7.7H139.238C140.796 7.7 142.076 7.97867 143.076 8.536C144.09 9.08067 144.837 9.85333 145.318 10.854C145.812 11.842 146.059 13.0073 146.059 14.35C146.059 15.6927 145.812 16.8643 145.318 17.865C144.837 18.853 144.09 19.6257 143.076 20.183C142.076 20.7277 140.796 21 139.238 21H134.697ZM137.129 18.91H139.124C140.239 18.91 141.119 18.7327 141.765 18.378C142.411 18.0107 142.874 17.4913 143.152 16.82C143.431 16.136 143.57 15.3127 143.57 14.35C143.57 13.4 143.431 12.583 143.152 11.899C142.874 11.215 142.411 10.6893 141.765 10.322C141.119 9.95467 140.239 9.771 139.124 9.771H137.129V18.91Z" fill="#51459E"/>
<circle cx="15" cy="15" r="15" fill="#51459E"/>
<path d="M9.088 20V8.8H11.52L15.088 15.904L18.608 8.8H21.04V20H18.992V12.272L15.872 18.4H14.256L11.136 12.272V20H9.088Z" fill="white"/>
</svg>
