  <svg
              width="22"
              height="23"
              viewBox="0 0 22 23"
              fill="none"
              xmlns="http://www.w3.org/2000/svg"
            >
              <path
                d="M15.9939 10.4291L16.4938 10.4407L16.4938 10.4406L15.9939 10.4291ZM16.0459 8.32821L16.5455 8.35239L16.5458 8.33883L16.0459 8.32821ZM9.99642 2.00159L9.98519 2.50147L9.98531 2.50147L9.99642 2.00159ZM3.67144 8.04694L3.17152 8.03571L3.17146 8.04297L3.67144 8.04694ZM3.62773 10.1511L3.12786 10.1398L3.12785 10.1402L3.62773 10.1511ZM1.34783 16.0645L1.70551 16.4139L1.7057 16.4137L1.34783 16.0645ZM2.20898 18.1629L2.22029 17.6631L2.21974 17.663L2.20898 18.1629ZM17.0473 18.4986L17.0359 18.9985L17.0367 18.9985L17.0473 18.4986ZM12.5733 19.8819L13.0525 20.0246L13.2394 19.3968L12.5845 19.3821L12.5733 19.8819ZM6.87683 19.7541L6.88805 19.2542L6.22976 19.2394L6.39231 19.8775L6.87683 19.7541ZM18.3764 16.1078C17.9978 15.6833 17.53 15.2264 17.1446 14.3999C16.7606 13.5763 16.4494 12.3566 16.4938 10.4407L15.4941 10.4175C15.4469 12.4543 15.7766 13.8324 16.2383 14.8225C16.6986 15.8097 17.2812 16.3822 17.6301 16.7734L18.3764 16.1078ZM16.4938 10.4406C16.495 10.3868 16.5068 9.88743 16.5188 9.38858C16.5249 9.13918 16.531 8.89013 16.5359 8.69713C16.5383 8.60059 16.5405 8.51834 16.5421 8.45716C16.543 8.42654 16.5437 8.40154 16.5443 8.38283C16.5446 8.37345 16.5448 8.36599 16.545 8.36036C16.5452 8.35412 16.5453 8.35201 16.5453 8.35238L15.5465 8.30405C15.5411 8.41476 15.4964 10.3164 15.4941 10.4177L16.4938 10.4406ZM16.5458 8.33883C16.6242 4.64554 13.7007 1.58375 10.0075 1.50172L9.98531 2.50147C13.1252 2.57121 15.6127 5.17451 15.546 8.3176L16.5458 8.33883ZM10.0076 1.50172C6.31522 1.41881 3.25448 4.3429 3.17157 8.03571L4.17132 8.05816C4.24183 4.91789 6.84453 2.43095 9.98519 2.50147L10.0076 1.50172ZM3.17146 8.04297C3.17067 8.1421 3.1304 10.0281 3.12786 10.1398L4.1276 10.1625C4.13001 10.0564 4.17057 8.15964 4.17143 8.05091L3.17146 8.04297ZM3.12785 10.1402C3.08587 12.0569 2.71972 13.2607 2.29871 14.0654C1.87612 14.873 1.38797 15.3074 0.989971 15.7153L1.7057 16.4137C2.07151 16.0388 2.68 15.4937 3.18476 14.529C3.69109 13.5612 4.08298 12.1997 4.12761 10.1621L3.12785 10.1402ZM0.990155 15.7151C-0.0271897 16.7566 0.624866 18.6289 2.19822 18.6628L2.21974 17.663C1.57094 17.6491 1.26452 16.8654 1.70551 16.4139L0.990155 15.7151ZM2.19767 18.6628L17.0359 18.9985L17.0586 17.9988L2.22029 17.6631L2.19767 18.6628ZM17.0367 18.9985C17.7567 19.0138 18.3508 18.5847 18.6341 18.0217C18.924 17.4457 18.9028 16.7021 18.3776 16.1091L17.629 16.7721C17.8577 17.0304 17.8645 17.3265 17.7409 17.5721C17.6108 17.8307 17.3499 18.0049 17.0578 17.9988L17.0367 18.9985ZM9.6658 22.4992C11.2616 22.533 12.6183 21.483 13.0525 20.0246L12.094 19.7393C11.7842 20.7802 10.8182 21.5234 9.68697 21.4994L9.6658 22.4992ZM12.5845 19.3821L6.88805 19.2542L6.86561 20.2539L12.562 20.3818L12.5845 19.3821ZM6.39231 19.8775C6.76594 21.3442 8.06831 22.4615 9.66457 22.4992L9.68819 21.4995C8.56079 21.4728 7.62946 20.6831 7.36136 19.6306L6.39231 19.8775Z"
                fill="#25396F"
              />
              <circle
                cx="17.25"
                cy="4.5"
                r="3.5"
                fill="#FF6E91"
                stroke="white"
                stroke-width="2"
              />
            </svg>