<svg width="33" height="33" viewBox="0 0 33 33" fill="none" xmlns="http://www.w3.org/2000/svg">
<rect x="0.620117" width="32.3799" height="32.3799" rx="5" fill="white"/>
<path d="M11.4134 17.9888C12.4069 17.9888 13.2123 17.1834 13.2123 16.19C13.2123 15.1965 12.4069 14.3911 11.4134 14.3911C10.4199 14.3911 9.61453 15.1965 9.61453 16.19C9.61453 17.1834 10.4199 17.9888 11.4134 17.9888Z" fill="#3246D3"/>
<path d="M16.8103 17.9888C17.8038 17.9888 18.6092 17.1834 18.6092 16.1899C18.6092 15.1964 17.8038 14.391 16.8103 14.391C15.8168 14.391 15.0114 15.1964 15.0114 16.1899C15.0114 17.1834 15.8168 17.9888 16.8103 17.9888Z" fill="#3246D3"/>
<path d="M22.207 17.9888C23.2005 17.9888 24.0058 17.1834 24.0058 16.1899C24.0058 15.1964 23.2005 14.391 22.207 14.391C21.2135 14.391 20.4081 15.1964 20.4081 16.1899C20.4081 17.1834 21.2135 17.9888 22.207 17.9888Z" fill="#3246D3"/>
</svg>
