<svg width="99" height="122" viewBox="0 0 99 122" fill="none" xmlns="http://www.w3.org/2000/svg">
<path d="M92.1214 121.46C95.6066 121.46 98.4308 118.67 98.4308 115.226C94.9456 115.226 92.1214 118.017 92.1214 121.46Z" fill="#84E8F4"/>
<path d="M68.3868 80.4407C68.3868 84.7616 71.9321 88.258 76.2986 88.258C76.2986 83.9436 72.7534 80.4407 68.3868 80.4407Z" fill="#B3B3B3"/>
<path d="M66.2096 33.7545C60.3208 33.7545 55.547 38.4713 55.547 44.2898C61.4358 44.2898 66.2096 39.573 66.2096 33.7545Z" fill="#84E8F4"/>
<path d="M57.4901 47.0143C57.4901 50.7085 60.5213 53.6969 64.2535 53.6969C64.2602 50.0027 61.229 47.0143 57.4901 47.0143Z" fill="#84E8F4"/>
<path d="M52.6762 47.1265C49.0641 47.1265 46.1398 50.0159 46.1398 53.5848C49.7518 53.5848 52.6762 50.6954 52.6762 47.1265Z" fill="#DEE1E6"/>
<path d="M88.3358 9.50424C88.3358 4.56316 84.2831 0.552246 79.2756 0.552246C79.2823 5.49992 83.335 9.50424 88.3358 9.50424Z" fill="#84E8F4"/>
<path d="M6.40729 24.8618C3.24257 24.8618 0.672058 27.4016 0.672058 30.5286C3.84345 30.522 6.40729 27.9887 6.40729 24.8618Z" fill="#84E8F4"/>
<path d="M88.9711 56.5864C83.2693 56.5864 78.649 61.1515 78.649 66.7852C84.3509 66.7852 88.9711 62.2202 88.9711 56.5864Z" fill="#84E8F4"/>
<path d="M52.9638 1.51538C49.0379 1.51538 45.8531 4.6621 45.8531 8.54108C49.779 8.54108 52.9638 5.39436 52.9638 1.51538Z" fill="#DEE1E6"/>
<path d="M100.721 -0.351562C94.7051 -0.351562 89.8245 4.47078 89.8245 10.4146C95.8468 10.4146 100.721 5.59225 100.721 -0.351562Z" fill="#84E8F4"/>
<path d="M89.5447 101.346C89.5447 107.607 94.6791 112.68 101.008 112.68C101.008 106.419 95.8742 101.346 89.5447 101.346Z" fill="#DEE1E6"/>
<path d="M92.0621 98.8527C95.6074 98.8527 98.485 96.0094 98.485 92.5065C94.9398 92.5065 92.0621 95.3497 92.0621 98.8527Z" fill="#84E8F4"/>
<path d="M43.1021 56.5864C37.4002 56.5864 32.78 61.1515 32.78 66.7852C38.4819 66.7852 43.1021 62.2202 43.1021 56.5864Z" fill="#DEE1E6"/>
<path d="M34.5562 47.0143C34.5562 50.7085 37.5873 53.6969 41.3196 53.6969C41.3263 50.0027 38.2951 47.0143 34.5562 47.0143Z" fill="#DEE1E6"/>
<path d="M79.6838 46.2754C79.6838 50.7811 83.3827 54.4358 87.9428 54.4358C87.9361 49.9301 84.244 46.2754 79.6838 46.2754Z" fill="#84E8F4"/>
<path d="M89.5447 56.019C89.5447 62.2795 94.6791 67.3525 101.008 67.3525C101.008 61.0921 95.8742 56.019 89.5447 56.019Z" fill="#DEE1E6"/>
<path d="M91.2606 54.3236C95.6938 54.3236 99.2859 50.7745 99.2859 46.3942C94.8526 46.3876 91.2606 49.9433 91.2606 54.3236Z" fill="#84E8F4"/>
<path d="M92.1817 35.9645C92.1817 39.3421 94.9525 42.0864 98.3709 42.0864C98.3709 38.7022 95.6001 35.9645 92.1817 35.9645Z" fill="#B3B3B3"/>
<path d="M33.0667 22.8762C33.0667 28.1933 37.4332 32.5077 42.8145 32.5077C42.8145 27.1906 38.448 22.8762 33.0667 22.8762Z" fill="#84E8F4"/>
<path d="M18.7322 12.6774C14.6128 12.6774 11.2811 15.9758 11.2811 20.0461C15.4006 20.0461 18.7322 16.7477 18.7322 12.6774Z" fill="#DEE1E6"/>
<path d="M11.8554 24.5781C11.8554 28.0217 14.6796 30.8122 18.1648 30.8122C18.1648 27.3686 15.3406 24.5781 11.8554 24.5781Z" fill="#84E8F4"/>
<path d="M31.0639 23.1598C25.9964 23.1598 21.8903 27.2169 21.8903 32.2239C26.9578 32.2239 31.0639 28.1668 31.0639 23.1598Z" fill="#B3B3B3"/>
<path d="M78.3615 21.7415C84.3771 21.7415 89.2577 16.9192 89.2577 10.9753C83.242 10.9753 78.3615 15.7977 78.3615 21.7415Z" fill="#DEE1E6"/>
<path d="M76.4719 43.1023C76.4719 38.5966 72.773 34.9419 68.2129 34.9419C68.2129 39.4476 71.9117 43.1023 76.4719 43.1023Z" fill="#DEE1E6"/>
<path d="M89.4844 33.4114C83.215 33.4114 78.1341 38.4316 78.1341 44.6327C84.4034 44.6327 89.4844 39.6125 89.4844 33.4114Z" fill="#84E8F4"/>
<path d="M80.1375 24.0636C80.1375 28.0679 83.4224 31.3136 87.4751 31.3136C87.4751 27.3159 84.1902 24.0636 80.1375 24.0636Z" fill="#B3B3B3"/>
<path d="M41.2664 13.0732C37.5942 13.0732 34.6165 16.0155 34.6165 19.6438C38.2886 19.6438 41.2664 16.7015 41.2664 13.0732Z" fill="#84E8F4"/>
<path d="M31.0038 20.8377C31.0038 15.8967 26.9511 11.8857 21.9436 11.8857C21.9436 16.8268 26.003 20.8377 31.0038 20.8377Z" fill="#DEE1E6"/>
<path d="M65.6354 11.6549C60.3809 11.6549 56.1212 15.8637 56.1212 21.0621C61.3757 21.0621 65.6354 16.8533 65.6354 11.6549Z" fill="#84E8F4"/>
<path d="M76.6986 20.6662C76.6986 15.9098 72.7994 12.0573 67.9856 12.0573C67.9856 16.8136 71.8847 20.6662 76.6986 20.6662Z" fill="#84E8F4"/>
<path d="M64.7143 80.553C60.468 80.553 57.0295 83.9504 57.0295 88.146C61.2759 88.146 64.7143 84.7486 64.7143 80.553Z" fill="#DEE1E6"/>
<path d="M57.9507 70.1299C57.9507 73.3228 60.5679 75.9088 63.7994 75.9088C63.7994 72.7159 61.1822 70.1299 57.9507 70.1299Z" fill="#84E8F4"/>
<path d="M53.2503 69.2195C49.004 69.2195 45.5656 72.6169 45.5656 76.8125C49.8119 76.8125 53.2503 73.4151 53.2503 69.2195Z" fill="#DEE1E6"/>
</svg>
