<svg width="44" height="44" viewBox="0 0 44 44" fill="none" xmlns="http://www.w3.org/2000/svg">
<rect width="44" height="44" rx="10" fill="#DEE1E6"/>
<path opacity="0.3" fill-rule="evenodd" clip-rule="evenodd" d="M12 28.5C12 29.3284 12.6716 30 13.5 30H30.5C31.3284 30 32 29.3284 32 28.5V17.5C32 16.6716 31.3284 16 30.5 16H20L17.4393 13.4393C17.158 13.158 16.7765 13 16.3787 13H13.5C12.6716 13 12 13.6716 12 14.5V28.5Z" fill="#51459E"/>
<path fill-rule="evenodd" clip-rule="evenodd" d="M22.6625 20.7643L19.6938 22.5692C19.6135 22.2681 19.4509 22.0006 19.2317 21.7921L22.2823 19.9949C22.3404 20.2859 22.4743 20.5495 22.6625 20.7643ZM19.2659 24.1745C19.4667 23.9723 19.6161 23.7188 19.6925 23.4355L22.7076 25.1862C22.5148 25.3893 22.3726 25.6411 22.3014 25.9212L19.2659 24.1745Z" fill="#51459E"/>
<path opacity="0.3" fill-rule="evenodd" clip-rule="evenodd" d="M24.417 20.9166C25.3835 20.9166 26.167 20.1331 26.167 19.1666C26.167 18.2001 25.3835 17.4166 24.417 17.4166C23.4505 17.4166 22.667 18.2001 22.667 19.1666C22.667 20.1331 23.4505 20.9166 24.417 20.9166Z" fill="#51459E"/>
<path opacity="0.3" fill-rule="evenodd" clip-rule="evenodd" d="M24.417 28.5C25.3835 28.5 26.167 27.7165 26.167 26.75C26.167 25.7835 25.3835 25 24.417 25C23.4505 25 22.667 25.7835 22.667 26.75C22.667 27.7165 23.4505 28.5 24.417 28.5Z" fill="#51459E"/>
<path opacity="0.3" fill-rule="evenodd" clip-rule="evenodd" d="M17.5498 24.8C18.5163 24.8 19.2998 24.0165 19.2998 23.05C19.2998 22.0835 18.5163 21.3 17.5498 21.3C16.5833 21.3 15.7998 22.0835 15.7998 23.05C15.7998 24.0165 16.5833 24.8 17.5498 24.8Z" fill="#51459E"/>
</svg>
