<svg width="22" height="22" viewBox="0 0 22 22" fill="none" xmlns="http://www.w3.org/2000/svg">
<rect width="22" height="22" rx="5" fill="#21A345"/>
<path d="M20.6667 15.8833V17.4673C20.6667 18.3139 19.9172 19 18.9924 19H3.67426C2.74966 19 2 18.3139 2 17.4673V16.4209L5.56777 14.2457C6.13038 13.9068 6.85993 13.9093 7.41959 14.2521L9.55084 15.5576C10.2962 16.0144 11.3024 15.8521 11.8325 15.1898L14.6833 11.6271C15.0018 11.2291 15.51 10.9957 16.0487 11.0001C16.5876 11.0044 17.0912 11.2458 17.4019 11.6489L20.6667 15.8833Z" fill="white"/>
<path d="M8.49975 5C9.88052 4.99983 10.9998 6.11914 11 7.49992C11 8.88069 9.88069 10 8.49992 10C7.11914 10 5.99983 8.88052 6 7.49975C6 6.11914 7.11914 5 8.49975 5Z" fill="white"/>
</svg>
