<svg width="19" height="23" viewBox="0 0 19 23" fill="none" xmlns="http://www.w3.org/2000/svg">
<path d="M4.59723 14.999C4.59723 14.6264 4.33868 14.4042 3.88252 14.4042C3.69624 14.4042 3.57009 14.4226 3.5041 14.4402V15.6356C3.58223 15.6532 3.67828 15.6591 3.81067 15.6591C4.2969 15.6591 4.59723 15.4134 4.59723 14.999Z" fill="#3246D3"/>
<path d="M7.42053 14.4164C7.21625 14.4164 7.08423 14.434 7.00615 14.4523V17.0999C7.08428 17.1182 7.21043 17.1182 7.32449 17.1182C8.15321 17.1241 8.6937 16.6679 8.6937 15.7013C8.69956 14.8608 8.20705 14.4164 7.42053 14.4164Z" fill="#3246D3"/>
<path d="M12.6667 0.564209H3.65561C2.33916 0.564209 1.26772 1.6364 1.26772 2.95209V11.7821H1.03449C0.503169 11.7821 0.0722656 12.2126 0.0722656 12.7444V18.5799C0.0722656 19.1116 0.503123 19.5421 1.03449 19.5421H1.26772V20.6121C1.26772 21.9293 2.33916 23 3.65561 23H15.9509C17.2665 23 18.3381 21.9292 18.3381 20.6121V6.2157L12.6667 0.564209ZM2.59659 13.7975C2.87858 13.7498 3.27496 13.7139 3.83341 13.7139C4.39778 13.7139 4.80001 13.8216 5.07028 14.038C5.32845 14.2419 5.50268 14.5785 5.50268 14.9746C5.50268 15.3706 5.37066 15.7073 5.13045 15.9353C4.81802 16.2294 4.35599 16.3614 3.8155 16.3614C3.69521 16.3614 3.58739 16.3555 3.50307 16.3438V17.7908H2.59659V13.7975ZM15.9509 21.5376H3.65561C3.14587 21.5376 2.73079 21.1225 2.73079 20.6121V19.5421H14.1925C14.724 19.5421 15.1548 19.1116 15.1548 18.5799V12.7444C15.1548 12.2126 14.724 11.7821 14.1925 11.7821H2.73079V2.95209C2.73079 2.44311 3.14592 2.02802 3.65561 2.02802L12.1197 2.01918V5.14779C12.1197 6.06163 12.8611 6.8038 13.7757 6.8038L16.8405 6.795L16.8749 20.6121C16.8749 21.1225 16.4606 21.5376 15.9509 21.5376ZM6.08719 17.7725V13.7975C6.42339 13.7439 6.8616 13.7139 7.32406 13.7139C8.09261 13.7139 8.59099 13.8518 8.9815 14.1458C9.40175 14.4582 9.66573 14.9562 9.66573 15.6712C9.66573 16.4457 9.38374 16.9804 8.99318 17.3104C8.56707 17.6646 7.91843 17.8326 7.12601 17.8326C6.65146 17.8326 6.31525 17.8025 6.08719 17.7725ZM12.6404 15.419V16.1634H11.1872V17.7908H10.2686V13.7439H12.7423V14.4942H11.1872V15.419H12.6404Z" fill="#3246D3"/>
</svg>
