<svg width="24" height="24" viewBox="0 0 24 24" fill="none" xmlns="http://www.w3.org/2000/svg">
<path fill-rule="evenodd" clip-rule="evenodd" d="M20 9H15V4C15 4 15 3 14 3C13 3 13 4 13 4V11H20C20 11 21 10.8284 21 10C21 9.17157 20 9 20 9ZM5 14H10V19C10 19 10 20 11 20C12 20 12 19 12 19V12H5C5 12 4 12.1716 4 13C4 13.8284 5 14 5 14Z" fill="#51459E"/>
<path opacity="0.3" fill-rule="evenodd" clip-rule="evenodd" d="M16.8787 5.70711C16.4882 6.09763 16.4882 6.73079 16.8787 7.12132C17.2692 7.51184 17.9024 7.51184 18.2929 7.12132L21.1213 4.29289C21.5119 3.90237 21.5119 3.2692 21.1213 2.87868C20.7308 2.48815 20.0977 2.48815 19.7071 2.87868L16.8787 5.70711ZM3.87871 18.7071C3.48818 19.0976 3.48818 19.7308 3.87871 20.1213C4.26923 20.5118 4.9024 20.5118 5.29292 20.1213L8.12135 17.2929C8.51187 16.9024 8.51187 16.2692 8.12135 15.8787C7.73082 15.4882 7.09766 15.4882 6.70714 15.8787L3.87871 18.7071Z" fill="#51459E"/>
</svg>
