<svg width="25" height="24" viewBox="0 0 25 24" fill="none" xmlns="http://www.w3.org/2000/svg">
<path opacity="0.3" d="M10.9 2C11.4523 2 11.9 2.44772 11.9 3C11.9 3.55228 11.4523 4 10.9 4H6C4.89543 4 4 4.89543 4 6V18C4 19.1046 4.89543 20 6 20H18C19.1046 20 20 19.1046 20 18V16C20 15.4477 20.4477 15 21 15C21.5523 15 22 15.4477 22 16V18C22 20.2091 20.2091 22 18 22H6C3.79086 22 2 20.2091 2 18V6C2 3.79086 3.79086 2 6 2H10.9Z" fill="#51459E"/>
<path d="M7.00455 13.8973C7.00455 13.1346 6.84111 10.1246 9.21552 7.73659C10.8136 6.12944 13.2053 5.85068 16.0654 5.72356V1.83791C16.0654 1.18717 16.8374 0.845197 17.3194 1.28244L23.8275 7.18682C24.1534 7.4824 24.156 7.99364 23.8332 8.29256L17.325 14.3198C16.8449 14.7645 16.0654 14.4239 16.0654 13.7695V9.90761C14.2494 9.95755 12.9559 10.0731 11.7806 10.447C9.50904 11.1696 8.16113 14.2685 7.79763 15.2124C7.73495 15.3752 7.57969 15.4863 7.40526 15.4863C7.18144 15.4863 7.00007 15.305 7.00078 15.0812C7.00208 14.6691 7.00455 14.1955 7.00455 13.8973Z" fill="#51459E"/>
</svg>
