<svg width="24" height="24" viewBox="0 0 24 24" fill="none" xmlns="http://www.w3.org/2000/svg">
<path opacity="0.3" d="M5.85714 2H13.7364C14.0911 2 14.4343 2.12568 14.7051 2.35474L19.4687 6.38394C19.8057 6.66895 20 7.08788 20 7.5292V20.0833C20 21.8739 19.9796 22 18.1429 22H5.85714C4.02045 22 4 21.8739 4 20.0833V3.91667C4 2.12612 4.02045 2 5.85714 2Z" fill="#51459E"/>
<rect x="7" y="17" width="9" height="1" rx="0.5" fill="#51459E"/>
<path d="M16.1692 8.70955C16.755 9.29534 16.755 10.2451 16.1692 10.8309L11.8574 15.1427C11.5872 15.413 11.2239 15.5699 10.8418 15.5813L9.87087 15.6105C9.01645 15.6362 8.31336 14.9437 8.32601 14.089L8.33945 13.1805C8.34522 12.7904 8.50276 12.4179 8.77863 12.142L13.1295 7.79114C13.7153 7.20535 14.665 7.20535 15.2508 7.79114L16.1692 8.70955Z" fill="#51459E"/>
</svg>
